<?xml version="1.0" standalone="no"?>
<!DOCTYPE svg PUBLIC "-//W3C//DTD SVG 20010904//EN"
 "http://www.w3.org/TR/2001/REC-SVG-20010904/DTD/svg10.dtd">
<svg version="1.0" xmlns="http://www.w3.org/2000/svg"
 width="640.000000pt" height="640.000000pt" viewBox="0 0 640.000000 640.000000"
 preserveAspectRatio="xMidYMid meet">

<g transform="translate(0.000000,640.000000) scale(0.100000,-0.100000)"
fill="#000000" stroke="none">
<path d="M0 3200 l0 -3200 3200 0 3200 0 0 3200 0 3200 -3200 0 -3200 0 0
-3200z m3519 2875 c641 -72 1235 -357 1687 -812 1010 -1014 1099 -2620 208
-3743 -87 -109 -335 -357 -444 -444 -961 -762 -2306 -820 -3320 -141 -407 273
-737 649 -954 1085 -143 287 -221 535 -271 860 -26 165 -31 523 -11 700 42
354 123 632 277 945 427 868 1272 1453 2244 1554 135 14 441 12 584 -4z"/>
<path d="M3180 5903 l-46 -4 -43 -132 c-24 -73 -46 -138 -48 -144 -4 -9 7 -13
35 -13 36 0 41 3 51 30 9 27 14 30 55 30 40 0 45 -3 55 -30 9 -28 13 -30 61
-30 60 0 61 -18 -10 169 -26 69 -51 125 -56 126 -5 1 -29 0 -54 -2z m13 -120
c2 -10 8 -26 12 -35 6 -15 2 -18 -19 -18 -27 0 -30 8 -20 48 8 26 20 29 27 5z"/>
<path d="M2872 5887 c-58 -11 -56 -8 -68 -112 l-6 -60 -35 70 c-20 39 -37 71
-38 73 -1 2 -32 -2 -68 -8 -64 -12 -66 -13 -61 -38 28 -164 44 -256 44 -259 0
-7 46 -2 59 6 12 8 12 22 0 100 -8 50 -13 91 -12 91 2 0 23 -41 48 -90 43 -86
47 -90 73 -84 37 9 40 17 48 107 4 42 10 79 14 82 4 2 12 -33 19 -78 7 -45 15
-85 17 -88 4 -6 81 5 89 13 2 2 -4 53 -15 113 -11 61 -22 125 -25 143 -3 17
-11 31 -18 31 -7 -1 -36 -6 -65 -12z"/>
<path d="M3426 5873 c-5 -25 -36 -247 -36 -258 0 -2 16 -7 36 -11 46 -8 50 -2
59 95 l7 76 49 -96 c46 -92 49 -96 86 -102 20 -4 40 -3 44 1 3 4 14 67 23 141
20 146 19 151 -36 151 -24 0 -27 -4 -33 -47 -12 -90 -17 -91 -59 -11 -22 40
-40 74 -40 75 -1 0 -22 4 -47 8 -46 7 -47 6 -53 -22z"/>
<path d="M2353 5767 c-43 -16 -81 -51 -89 -82 -18 -74 33 -110 141 -99 55 6
65 4 65 -9 0 -22 -55 -39 -85 -25 -19 9 -30 6 -60 -12 -36 -22 -37 -23 -17
-42 47 -47 175 -26 232 38 38 44 40 85 4 121 -25 25 -29 25 -106 19 -73 -6
-79 -5 -76 11 3 14 13 18 48 19 42 0 100 26 100 44 0 13 -51 30 -88 29 -20 0
-51 -6 -69 -12z"/>
<path d="M3998 5763 c-35 -3 -51 -10 -59 -24 -16 -30 -4 -49 32 -49 21 0 30
-4 27 -12 -3 -7 -13 -37 -22 -65 -10 -29 -19 -53 -21 -53 -1 0 -19 7 -39 15
-36 15 -36 15 -46 -10 -6 -15 -10 -30 -10 -34 0 -8 237 -87 244 -80 2 2 7 16
11 31 6 23 3 27 -24 33 -17 4 -33 10 -36 14 -2 5 11 55 30 112 19 56 31 107
27 111 -11 11 -59 16 -114 11z"/>
<path d="M3057 5460 c-892 -67 -1651 -656 -1931 -1500 -139 -416 -150 -846
-35 -1279 135 -510 472 -968 934 -1271 112 -73 339 -182 475 -228 372 -127
758 -152 1140 -76 795 158 1432 730 1674 1506 77 243 100 427 93 717 -5 217
-21 330 -72 518 -135 502 -463 954 -910 1254 -202 136 -518 268 -760 318 -191
39 -423 55 -608 41z m-213 -332 c4 -57 24 -638 46 -1293 22 -655 42 -1231 45
-1281 l5 -91 -102 51 c-143 72 -267 95 -345 65 -43 -16 -191 -13 -243 6 -53
19 -107 67 -126 112 -8 18 -14 62 -14 97 l0 65 52 -32 c46 -29 59 -32 127 -32
88 1 134 20 209 88 63 58 150 179 169 234 35 102 -5 280 -112 494 -31 61 -71
157 -90 213 -34 103 -60 262 -49 304 7 23 7 23 28 4 49 -45 108 -56 126 -23
19 37 10 64 -39 116 -84 89 -131 210 -111 287 11 41 54 108 68 108 4 -1 17
-23 30 -50 27 -58 67 -90 122 -97 l38 -5 6 63 c3 35 11 145 17 244 19 313 56
455 120 455 15 0 18 -14 23 -102z m789 84 c46 -51 71 -180 86 -447 17 -289 18
-295 47 -295 50 0 99 36 130 94 16 31 34 54 39 53 17 -6 55 -68 66 -109 8 -33
7 -51 -11 -106 -29 -90 -41 -111 -100 -175 -28 -31 -50 -64 -50 -77 0 -73 67
-81 139 -16 l23 21 -5 -105 c-6 -135 -38 -241 -123 -417 -117 -243 -157 -411
-122 -514 33 -97 167 -252 259 -300 35 -18 60 -23 120 -24 68 0 81 3 127 32
l52 32 0 -62 c-1 -105 -50 -180 -140 -212 -52 -19 -196 -22 -250 -5 -90 26
-194 6 -338 -66 l-104 -52 6 107 c4 58 24 644 46 1301 46 1381 45 1360 69
1360 10 0 25 -8 34 -18z m-632 -2898 c42 -8 100 -22 130 -33 l54 -18 3 -203 2
-202 -22 6 c-116 34 -189 48 -281 55 -122 9 -301 -2 -407 -24 -39 -8 -76 -15
-81 -15 -5 0 -9 75 -9 180 l0 180 48 24 c141 71 352 90 563 50z m833 -4 c41
-10 97 -30 125 -45 l51 -25 0 -180 c0 -105 -4 -180 -9 -180 -5 0 -42 7 -81 15
-107 22 -292 33 -410 24 -89 -7 -165 -22 -277 -55 l-23 -6 0 199 c0 231 -14
206 130 242 179 44 349 48 494 11z m-1649 -271 c70 -18 87 -44 95 -144 6 -79
9 -88 40 -120 43 -44 107 -71 216 -90 278 -48 1115 -46 1361 4 108 22 190 63
215 108 12 19 20 57 22 101 5 82 15 106 59 129 34 18 82 20 345 15 l142 -3
-26 -34 c-27 -35 -110 -109 -156 -139 l-27 -18 72 -58 c40 -31 88 -74 107 -95
l35 -37 -220 5 c-242 7 -273 2 -309 -46 -14 -19 -21 -45 -22 -78 -1 -27 -2
-60 -3 -74 0 -14 -17 -43 -37 -65 -70 -77 -199 -105 -563 -121 -257 -12 -672
-6 -869 12 -198 18 -315 59 -359 126 -12 17 -20 56 -24 105 -4 63 -10 83 -29
103 -39 41 -82 47 -305 39 -141 -5 -205 -4 -205 3 0 13 94 100 156 145 l45 32
-28 20 c-15 11 -64 55 -108 97 l-80 78 144 0 c79 1 147 3 149 6 10 9 123 5
167 -6z"/>
<path d="M2394 1597 c-10 -26 1 -180 13 -184 7 -3 13 10 15 34 3 35 6 38 38
43 l35 5 0 55 0 55 -48 3 c-33 2 -49 -1 -53 -11z m74 -49 c-2 -35 -7 -43 -23
-43 -16 0 -21 8 -23 43 -3 39 -2 42 23 42 25 0 26 -3 23 -42z"/>
<path d="M2530 1510 c0 -77 3 -101 13 -98 6 3 14 27 17 54 l5 49 22 -52 c13
-32 28 -53 38 -53 14 0 14 4 -1 38 -9 20 -18 43 -21 50 -3 7 2 12 11 12 14 0
17 9 14 48 l-3 47 -47 3 -48 3 0 -101z m70 45 c0 -28 -4 -35 -20 -35 -16 0
-20 7 -20 35 0 28 4 35 20 35 16 0 20 -7 20 -35z"/>
<path d="M2706 1593 c-11 -37 -36 -155 -36 -169 0 -23 20 -16 30 11 5 14 16
25 25 25 8 0 17 -11 21 -25 3 -14 13 -25 21 -25 11 0 14 7 10 23 -3 12 -13 57
-22 100 -17 75 -37 100 -49 60z m28 -95 c5 -21 3 -28 -9 -28 -16 0 -19 17 -9
45 8 19 9 18 18 -17z"/>
<path d="M2800 1603 c0 -5 9 -32 20 -61 11 -29 20 -70 20 -92 0 -29 4 -40 15
-40 11 0 15 11 15 38 0 20 9 61 20 90 23 59 24 72 10 72 -6 0 -19 -19 -29 -42
l-18 -43 -13 43 c-7 23 -19 42 -27 42 -7 0 -13 -3 -13 -7z"/>
<path d="M2957 1543 c-30 -134 -30 -133 -13 -133 8 0 16 10 18 23 2 14 10 22
23 22 13 0 21 -8 23 -22 2 -13 10 -23 18 -23 18 0 18 1 -7 109 -26 112 -41
118 -62 24z m42 -60 c1 -7 -6 -13 -15 -13 -12 0 -15 6 -10 23 3 12 6 29 7 37
1 15 16 -24 18 -47z"/>
<path d="M3060 1600 c0 -5 9 -10 20 -10 19 0 20 -7 20 -91 0 -68 3 -90 13 -87
8 3 13 33 15 91 2 68 6 87 17 87 8 0 15 5 15 10 0 6 -22 10 -50 10 -27 0 -50
-4 -50 -10z"/>
<path d="M3190 1509 c0 -76 3 -100 13 -97 6 3 14 26 17 53 l5 49 24 -52 c14
-29 28 -52 33 -52 4 0 8 45 8 100 0 107 -17 139 -22 43 l-3 -58 -28 58 c-15
31 -31 57 -37 57 -6 0 -10 -39 -10 -101z"/>
<path d="M3366 1598 c-8 -25 -36 -161 -36 -174 0 -23 20 -16 30 11 5 14 16 25
25 25 8 0 17 -11 21 -25 10 -39 35 -32 27 8 -27 136 -54 198 -67 155z m27
-120 c-2 -5 -8 -8 -14 -8 -11 0 -12 43 -2 54 9 8 22 -34 16 -46z"/>
<path d="M3556 1532 c-9 -43 -19 -88 -23 -100 -4 -15 -1 -22 10 -22 8 0 18 11
21 25 4 14 13 25 21 25 9 0 20 -11 25 -25 10 -27 30 -34 30 -11 0 14 -25 132
-36 169 -12 39 -32 15 -48 -61z m43 -44 c1 -10 -6 -18 -15 -18 -11 0 -14 5
-10 16 3 9 6 25 7 37 0 21 1 21 9 2 5 -11 9 -28 9 -37z"/>
<path d="M3674 1597 c-2 -7 -4 -52 -2 -98 l3 -84 50 0 50 0 3 48 3 47 -33 0
c-27 -1 -30 -2 -15 -11 10 -6 17 -22 17 -39 0 -25 -4 -30 -25 -30 -25 0 -25 1
-25 80 0 79 0 80 25 80 18 0 25 -5 25 -20 0 -11 7 -20 16 -20 11 0 14 8 12 28
-3 25 -7 27 -51 30 -33 2 -49 -1 -53 -11z"/>
<path d="M3814 1597 c-10 -27 1 -180 13 -184 8 -3 13 14 15 54 l3 58 27 -57
c15 -32 32 -58 37 -58 7 0 11 37 11 101 0 76 -3 100 -12 97 -8 -3 -14 -27 -16
-58 l-3 -54 -26 57 c-26 57 -39 69 -49 44z"/>
<path d="M3967 1603 c-4 -3 -7 -48 -7 -100 0 -76 3 -93 15 -93 12 0 15 18 15
100 0 92 -5 112 -23 93z"/>
<path d="M1367 1572 c-53 -53 -97 -102 -97 -108 0 -13 113 -123 152 -148 55
-36 125 5 115 67 -5 32 -4 34 19 29 34 -6 74 32 74 71 0 23 -16 46 -77 108
-42 44 -79 79 -82 79 -4 0 -50 -44 -104 -98z m153 -36 c13 -15 20 -32 17 -40
-9 -22 -21 -20 -54 8 -24 20 -25 26 -14 40 18 21 23 20 51 -8z m-83 -78 c27
-25 31 -58 6 -58 -9 0 -27 10 -39 21 -19 18 -21 24 -11 40 15 24 16 24 44 -3z"/>
<path d="M4878 1605 c-99 -67 -104 -191 -11 -262 73 -56 186 -21 220 67 11 27
20 36 32 33 10 -2 23 3 31 12 12 14 6 23 -41 71 -29 29 -58 54 -64 54 -6 0
-32 -22 -58 -48 l-47 -48 23 -22 c21 -20 25 -21 37 -7 17 21 30 19 30 -5 0
-11 -11 -27 -24 -35 -22 -15 -27 -15 -54 -1 -38 20 -76 79 -67 105 7 23 37 35
64 26 25 -8 81 62 60 76 -28 17 -93 10 -131 -16z"/>
<path d="M4705 1435 l-29 -24 48 -62 c26 -34 44 -59 39 -56 -4 3 -45 16 -90
30 l-81 25 -36 -26 c-20 -14 -36 -29 -36 -34 0 -11 158 -222 170 -226 4 -2 21
8 36 22 l29 24 -48 61 c-26 34 -47 63 -47 65 0 2 43 -10 96 -27 l95 -30 27 20
c15 12 27 27 26 35 -1 14 -151 221 -163 225 -3 1 -19 -9 -36 -22z"/>
<path d="M1607 1347 c-70 -45 -127 -85 -127 -88 0 -3 13 -15 30 -27 28 -21 31
-22 55 -6 24 16 27 15 60 -10 37 -29 41 -37 25 -66 -8 -15 -3 -24 31 -50 22
-18 41 -31 43 -29 4 5 96 282 96 290 0 3 -19 19 -43 36 l-43 31 -127 -81z m91
-65 c-12 -29 -14 -30 -33 -16 -19 14 -19 15 10 38 35 28 41 21 23 -22z"/>
<path d="M1849 1228 c-24 -40 -55 -95 -71 -121 -16 -27 -26 -52 -23 -56 6 -10
64 -35 69 -30 1 2 22 36 44 74 l42 70 0 -40 c0 -22 3 -70 7 -107 6 -64 8 -69
41 -88 19 -12 36 -20 37 -18 1 2 35 59 75 127 76 129 75 124 27 152 -24 13
-30 8 -69 -59 l-33 -57 -2 40 c-8 127 -13 143 -47 165 -19 11 -38 20 -44 20
-6 0 -30 -33 -53 -72z"/>
<path d="M4458 1262 c-16 -9 -28 -20 -28 -25 0 -4 20 -43 45 -86 49 -85 55
-115 26 -131 -37 -19 -50 -10 -101 80 -28 50 -55 90 -60 90 -11 0 -80 -40 -80
-46 0 -3 7 -19 16 -35 l15 -30 -26 17 c-15 9 -42 17 -61 16 -30 -1 -177 -55
-197 -72 -7 -6 86 -245 102 -262 9 -10 91 21 91 34 0 5 -7 25 -15 45 -20 48
-20 47 25 68 61 27 90 61 90 104 l0 36 31 -55 c17 -30 38 -61 47 -67 39 -32
146 -2 198 54 38 41 32 82 -28 190 -29 51 -55 93 -58 93 -3 0 -17 -8 -32 -18z
m-263 -253 c0 -17 -8 -26 -27 -33 -31 -11 -33 -10 -42 21 -5 17 -1 23 21 31
38 14 48 10 48 -19z"/>
<path d="M2145 1117 c-7 -18 -32 -74 -54 -126 -23 -52 -41 -100 -41 -106 0 -7
38 -27 85 -45 130 -50 200 -32 239 63 17 41 18 51 7 89 -17 56 -53 87 -145
125 l-77 32 -14 -32z m135 -113 c11 -27 -1 -68 -27 -96 -19 -21 -71 -24 -79
-5 -2 7 9 44 25 81 28 62 32 66 51 56 12 -6 25 -22 30 -36z"/>
<path d="M3914 1013 c-48 -14 -52 -18 -58 -52 -3 -20 -6 -56 -6 -81 l0 -45
-41 68 c-23 37 -47 67 -53 67 -7 0 -36 -7 -64 -15 -37 -11 -52 -21 -51 -33 0
-9 15 -71 33 -137 l32 -120 33 2 c18 0 35 3 37 6 3 3 -4 42 -16 87 -12 45 -19
84 -17 86 2 3 26 -31 53 -75 44 -73 51 -80 74 -74 14 3 28 8 33 10 4 2 7 48 7
101 0 123 8 116 49 -45 l11 -41 38 10 c20 5 40 13 44 17 11 10 -63 281 -76
280 -6 -1 -34 -8 -62 -16z"/>
<path d="M2418 893 c-46 -65 -84 -121 -86 -124 -2 -4 14 -13 34 -19 35 -12 38
-11 56 13 18 24 21 25 61 13 36 -10 42 -16 45 -42 3 -26 9 -33 41 -43 63 -19
64 -18 57 57 -3 37 -8 106 -11 153 l-7 86 -37 12 c-21 6 -45 11 -54 11 -9 0
-53 -53 -99 -117z m112 -24 c0 -37 -2 -40 -22 -33 -32 9 -32 9 -12 43 25 42
34 39 34 -10z"/>
<path d="M2699 958 c0 -2 -10 -67 -23 -145 -25 -158 -28 -149 44 -155 l35 -3
9 53 c12 71 35 68 55 -8 8 -30 15 -56 16 -58 2 -1 26 -6 54 -11 59 -9 58 -10
35 69 -13 44 -13 55 -3 59 27 9 59 51 59 79 0 31 -29 68 -64 82 -12 4 -58 13
-102 20 -43 6 -87 13 -96 16 -10 3 -18 4 -19 2z m165 -98 c18 -18 -3 -40 -37
-40 -41 0 -45 4 -39 36 4 23 8 25 36 20 16 -4 34 -10 40 -16z"/>
<path d="M3458 923 c-25 -4 -28 -10 -53 -121 -15 -64 -31 -132 -35 -150 l-9
-33 42 3 c33 2 43 7 45 23 7 34 23 45 63 45 33 0 41 -4 51 -26 11 -24 15 -25
57 -19 26 4 48 9 51 11 2 3 -26 65 -63 139 -73 147 -66 141 -149 128z m47
-125 c15 -38 12 -48 -17 -48 -16 0 -19 5 -14 23 3 12 6 30 6 40 0 26 9 20 25
-15z"/>
<path d="M3122 764 l3 -147 110 2 c60 1 111 4 113 5 1 2 4 16 5 32 l2 29 -67
3 -68 3 0 109 0 110 -50 0 -51 0 3 -146z"/>
</g>
</svg>
