<?xml version="1.0" standalone="no"?>
<!DOCTYPE svg PUBLIC "-//W3C//DTD SVG 20010904//EN"
 "http://www.w3.org/TR/2001/REC-SVG-20010904/DTD/svg10.dtd">
<svg version="1.0" xmlns="http://www.w3.org/2000/svg"
 width="668.000000pt" height="665.000000pt" viewBox="0 0 668.000000 665.000000"
 preserveAspectRatio="xMidYMid meet">

<g transform="translate(0.000000,665.000000) scale(0.100000,-0.100000)"
fill="#000000" stroke="none">
<path d="M3115 6571 c-334 -113 -555 -205 -865 -362 -853 -429 -1533 -1004
-2141 -1809 l-94 -125 -5 -95 c-9 -154 24 -605 66 -905 142 -1014 515 -1944
1119 -2790 51 -72 104 -140 117 -152 35 -33 399 -131 730 -198 954 -191 1913
-172 2833 56 165 41 479 132 520 151 37 17 251 325 415 598 395 655 670 1412
795 2183 52 322 67 496 72 832 l5 320 -97 120 c-794 987 -1645 1642 -2678
2062 -227 92 -502 183 -551 182 -23 0 -129 -30 -241 -68z m-137 -1538 c-92
-95 -150 -216 -168 -356 -20 -151 13 -279 102 -394 22 -30 38 -56 35 -59 -3
-3 -34 -16 -69 -29 -35 -12 -63 -27 -63 -31 0 -5 27 -23 60 -41 33 -17 61 -36
62 -40 2 -5 -25 -22 -59 -37 -63 -27 -63 -27 -38 -41 14 -8 50 -22 80 -31 51
-16 53 -18 35 -31 -186 -132 -244 -203 -291 -358 -27 -88 -25 -300 4 -416 66
-269 241 -569 487 -835 116 -126 115 -147 -5 -108 -178 59 -434 94 -680 94
-150 0 -346 14 -430 31 -76 15 -160 41 -160 50 0 14 125 69 205 90 94 24 208
28 468 15 120 -6 177 -6 177 1 0 17 -90 148 -218 316 -130 172 -200 295 -228
397 -34 125 -15 377 41 543 13 38 50 110 81 159 67 105 83 146 84 207 1 185
-304 351 -647 351 -47 0 -83 4 -83 10 0 16 102 92 160 118 149 66 313 62 528
-14 40 -15 75 -24 78 -21 3 2 16 45 29 96 43 160 116 271 225 341 60 38 149
69 205 69 l39 1 -46 -47z m837 32 c185 -49 305 -182 361 -402 13 -53 25 -98
27 -99 1 -1 56 16 122 38 247 83 452 57 600 -76 l50 -45 -65 -1 c-235 -3 -454
-71 -573 -180 -69 -63 -97 -118 -97 -191 0 -50 6 -63 69 -164 37 -61 80 -141
94 -180 36 -100 59 -252 60 -385 1 -195 -42 -292 -259 -581 -74 -98 -150 -205
-169 -236 l-35 -58 38 -8 c20 -5 97 -4 172 2 279 22 398 12 543 -49 110 -45
113 -54 30 -79 -120 -35 -173 -41 -456 -51 -366 -13 -512 -32 -731 -95 -83
-24 -106 -25 -106 -5 0 5 43 57 96 116 318 357 485 696 500 1014 12 245 -68
424 -245 545 -39 27 -71 52 -71 55 0 4 27 15 60 25 73 22 93 40 59 54 -75 29
-99 43 -94 52 4 5 33 23 66 39 32 17 59 34 59 40 0 5 -27 19 -61 31 -33 12
-63 28 -66 35 -3 7 11 33 31 57 164 200 131 540 -72 750 -44 45 -45 47 -21 47
14 0 51 -7 84 -15z m-125 -861 c0 -19 -5 -44 -10 -55 -10 -18 -24 -19 -309
-19 -227 0 -301 3 -309 13 -13 17 -25 74 -17 87 4 6 118 10 326 10 l319 0 0
-36z m-2209 -211 c-64 -290 -85 -474 -79 -680 6 -154 23 -234 70 -327 l20 -40
15 28 c8 16 32 97 53 180 45 179 72 239 149 319 48 51 130 117 144 117 2 0
-12 -46 -32 -102 -34 -97 -36 -110 -36 -228 0 -116 2 -129 26 -175 30 -56 93
-125 114 -125 37 0 45 81 19 205 -9 45 -13 95 -10 119 14 91 79 189 180 268
l51 41 6 -194 c6 -205 16 -265 64 -374 43 -95 80 -144 224 -284 160 -157 161
-153 -29 -144 -275 12 -494 -41 -640 -156 -25 -20 -25 -20 -5 -35 44 -33 186
-96 269 -120 95 -28 257 -51 426 -61 143 -8 319 -30 534 -66 309 -51 417 -50
771 11 197 34 301 46 515 60 194 14 310 33 425 71 88 29 235 105 235 121 0 14
-83 70 -155 103 -116 54 -194 67 -432 73 -149 3 -213 8 -213 16 0 6 62 72 139
146 131 128 141 140 184 230 66 139 79 204 86 418 l6 182 52 -35 c132 -89 197
-258 159 -418 -19 -81 -20 -117 -4 -152 14 -30 27 -31 60 -5 42 32 87 112 105
184 14 59 15 80 5 157 -7 48 -26 127 -43 175 -17 47 -28 88 -25 91 9 10 127
-89 168 -141 58 -73 83 -132 119 -286 18 -74 40 -153 49 -175 l18 -40 25 55
c46 98 59 165 64 331 6 185 -10 337 -64 599 -20 96 -38 197 -41 225 -4 44 -2
48 11 36 21 -17 152 -240 212 -361 97 -194 180 -433 205 -590 15 -97 12 -296
-6 -390 -23 -122 -68 -241 -144 -380 -115 -209 -134 -255 -134 -330 0 -78 20
-122 94 -203 44 -49 50 -59 40 -77 -15 -27 -25 -26 -80 14 -26 19 -63 43 -81
53 -33 17 -107 18 -1973 15 -1113 -2 -1949 -8 -1963 -13 -13 -5 -50 -27 -82
-50 -60 -42 -85 -46 -97 -14 -4 10 11 34 44 69 72 76 96 127 96 208 0 61 -4
76 -50 165 -28 54 -81 157 -117 228 -164 320 -177 600 -46 981 63 185 214 486
323 644 l31 45 3 -37 c2 -20 -11 -99 -27 -175z m2197 81 c2 -26 -2 -45 -11
-53 -11 -8 -94 -11 -308 -9 l-294 3 -3 39 c-6 70 -25 67 310 64 l303 -3 3 -41z
m1649 -2260 c59 -22 123 -70 123 -94 0 -16 -7 -20 -37 -21 -59 0 -105 -21
-129 -56 -12 -18 -34 -72 -49 -120 -50 -164 -79 -184 -284 -192 l-143 -6 -34
-39 -34 -39 -45 42 -45 41 -1265 0 c-908 0 -1272 -3 -1288 -11 -12 -6 -36 -27
-53 -47 l-31 -35 -34 37 c-49 54 -60 58 -170 57 -206 -3 -253 32 -319 234 -15
46 -35 82 -57 104 -31 31 -37 33 -88 29 -42 -4 -55 -1 -55 9 0 46 88 110 166
121 26 4 898 6 1938 4 1661 -2 1896 -5 1933 -18z"/>
</g>
</svg>
